<svg xmlns="http://www.w3.org/2000/svg" viewBox="0 0 13.0006 13.0001"><g fill="#34373e"><path d="M6.4925 6.1552c-.1947 0-.3517.158-.3517.3516 0 .194.157.3517.3517.3517.1943 0 .3517-.1578.3517-.3517 0-.1937-.1574-.3516-.3517-.3516"/><path d="M7.38 5.9595c0-.1945-.1583-.3525-.3526-.3525-.194 0-.3514.158-.3514.3525 0 .194.1573.3514.3514.3514.1943 0 .3525-.158.3525-.352m0 1.095c0-.194-.159-.353-.353-.353-.194 0-.352.158-.352.352 0 .194.157.352.351.352.194 0 .352-.158.352-.352m.254-.918c-.194 0-.352.157-.352.352 0 .193.157.352.351.352.194 0 .352-.158.352-.352 0-.195-.158-.352-.352-.352m.662-.553c-.194 0-.352.158-.352.352 0 .194.158.351.352.351.194 0 .352-.157.352-.352 0-.194-.158-.352-.353-.352m-.005 1.13c-.193 0-.352.158-.352.353 0 .193.158.351.351.351.194 0 .352-.158.352-.352 0-.194-.158-.353-.353-.353m-.68 1.251c.195 0 .353-.159.353-.352 0-.194-.158-.352-.353-.352-.194 0-.351.158-.351.352 0 .193.157.352.351.352m-.197.33c0-.194-.158-.352-.353-.352-.194 0-.352.158-.352.352 0 .194.158.352.352.352.194 0 .352-.158.352-.352m-.901 1.1c.194 0 .353-.158.353-.352 0-.195-.159-.352-.353-.352-.193 0-.351.157-.351.352 0 .194.158.352.351.352m2.528-3.255c-.194 0-.352.158-.352.352 0 .194.158.352.352.352.194 0 .352-.158.352-.352 0-.194-.158-.352-.352-.352M9 7.313c-.1936 0-.3515.157-.3515.351 0 .194.158.351.352.351.194 0 .352-.158.352-.352 0-.194-.159-.352-.353-.352m.823-.53c-.195 0-.352.158-.352.352 0 .194.157.351.3513.351.194 0 .352-.158.352-.352 0-.195-.158-.353-.352-.353m.2564 1.545c0-.195-.1578-.353-.3523-.353-.194 0-.352.158-.352.353 0 .193.158.35.351.35.194 0 .352-.158.352-.351m-.852.5264c0-.194-.158-.351-.352-.351-.194 0-.352.1575-.352.3515 0 .195.158.352.352.352.194 0 .352-.157.352-.352m-1.565.494c.194 0 .352-.158.352-.352s-.159-.352-.353-.352c-.194 0-.352.157-.352.352s.158.352.352.352m-.551.823c.194 0 .352-.158.352-.352s-.158-.353-.352-.353c-.194 0-.352.158-.352.352 0 .194.157.352.351.352m-.606.874c.194 0 .353-.158.353-.352 0-.194-.159-.352-.353-.352-.194 0-.352.159-.352.353s.158.352.351.352m2.063-2.832c0-.194-.158-.352-.352-.352-.193 0-.352.157-.352.351 0 .194.159.352.352.352.194 0 .352-.159.352-.353m2.08-.785c-.194 0-.352.157-.352.351 0 .195.158.352.351.352.194 0 .352-.157.352-.352 0-.194-.158-.351-.352-.351m-.131 1.268c-.194 0-.352.157-.352.352 0 .194.158.351.352.351.194 0 .352-.158.352-.352 0-.194-.158-.352-.352-.352m.866.757c-.194 0-.352.158-.352.352 0 .194.157.352.352.352.194 0 .352-.158.352-.352 0-.194-.158-.352-.352-.352m-1.067.496c-.194 0-.352.158-.352.351 0 .194.158.352.351.352.195 0 .353-.158.353-.352 0-.194-.158-.352-.353-.352m-.384-.371c0-.194-.158-.353-.352-.353-.194 0-.351.159-.351.353 0 .194.158.352.352.352.194 0 .352-.158.352-.352m-.875 1.289c.193 0 .352-.157.352-.351s-.159-.352-.352-.352c-.195 0-.352.159-.352.3524 0 .194.157.351.351.351m-1.279.133c.194 0 .352-.157.352-.352 0-.194-.158-.352-.352-.352-.194 0-.352.158-.352.352 0 .195.158.352.352.352m.903-1.267c0-.194-.158-.352-.352-.352-.194 0-.352.159-.352.353 0 .194.157.351.351.351.194 0 .352-.157.352-.351m2.455 1.0405c-.194 0-.352.158-.352.352 0 .194.158.3514.352.3514.194 0 .352-.158.352-.352 0-.194-.158-.352-.353-.352m-1.336.254c-.194 0-.352.158-.352.353 0 .193.1575.351.3514.351.194 0 .3523-.158.3523-.351 0-.194-.158-.352-.353-.352m-.577 1.025c-.1937 0-.352.158-.352.352 0 .194.1583.352.352.352.194 0 .352-.158.352-.351 0-.194-.158-.352-.352-.352m-.751-.881c-.195 0-.353.158-.353.352 0 .194.158.352.352.352.1934 0 .351-.158.351-.352 0-.194-.158-.352-.351-.352m-.611 1.057c-.194 0-.351.158-.351.352 0 .194.157.351.3513.351.1947 0 .3525-.157.3525-.351 0-.194-.158-.352-.352-.352m-.716-.969c-.194 0-.352.158-.352.353 0 .194.158.351.352.351.194 0 .352-.158.352-.3516 0-.194-.158-.352-.352-.352m-.632 1.0373c-.194 0-.352.158-.352.352 0 .194.1575.352.352.352.194 0 .352-.158.352-.352 0-.194-.1575-.352-.352-.352m-.673-1.037c-.194 0-.352.157-.352.352 0 .194.158.351.352.351.194 0 .3526-.1574.3526-.3513 0-.195-.159-.352-.353-.352m-.707.9734c-.1943 0-.352.158-.352.353 0 .193.157.351.3518.351.194 0 .352-.158.352-.351 0-.195-.158-.3525-.3515-.3525M3.8 12.052c-.194 0-.352.158-.352.352 0 .194.158.352.352.352.194 0 .352-.158.352-.352 0-.194-.1584-.352-.3527-.352m7.725-3.933c-.194 0-.3518.158-.3518.352 0 .195.158.352.351.352.194 0 .352-.157.352-.352 0-.194-.158-.352-.352-.352m.88.726c-.1938 0-.3517.158-.3517.352 0 .195.1575.352.351.352.195 0 .353-.157.353-.352 0-.194-.157-.351-.352-.351m.178-1.337c-.194 0-.3516.158-.3516.352 0 .194.158.3516.352.3516.194 0 .352-.157.352-.351s-.158-.352-.352-.352m-.975-.7c-.1946 0-.352.158-.352.352 0 .194.157.3518.3515.3518.194 0 .352-.158.352-.351 0-.194-.158-.352-.352-.352m1.037-.666c-.1946 0-.3514.158-.3514.3528 0 .194.157.352.352.352.194 0 .352-.158.352-.352 0-.195-.158-.353-.352-.353m-1.038-.636c-.193 0-.351.158-.351.352 0 .194.158.352.351.352.195 0 .353-.1575.353-.3515 0-.195-.158-.353-.353-.353m.623-.371c0 .194.158.352.352.352s.352-.158.352-.352c0-.194-.158-.352-.352-.352-.194 0-.351.158-.351.352m-1.059-.607c0 .194.158.352.352.352.194 0 .352-.158.352-.352 0-.194-.158-.353-.352-.353-.194 0-.351.158-.351.352m1.2385-.395c.194 0 .352-.158.352-.352 0-.195-.158-.353-.352-.353-.194 0-.352.1576-.352.352 0 .1936.158.3516.352.3516m-1.379-.9276c0 .194.157.351.3507.351.195 0 .352-.157.352-.351 0-.195-.158-.3526-.353-.3526-.1935 0-.3507.158-.3507.352m.103-.966c.194 0 .352-.157.352-.351 0-.194-.1576-.352-.3516-.352-.1944 0-.352.158-.352.352 0 .195.158.352.3527.352m-1.162.463c0 .194.158.352.352.352.194 0 .353-.157.353-.352s-.159-.352-.353-.352c-.194 0-.352.158-.352.352m-.399.374c-.193 0-.351.158-.351.353 0 .194.158.352.351.352.195 0 .353-.158.353-.351 0-.194-.158-.352-.353-.352m-1.05 1.069c0 .194.158.352.352.352.194 0 .352-.158.352-.352 0-.194-.158-.352-.352-.352-.194 0-.352.158-.352.353m-.19-1.224c-.195 0-.352.157-.352.352 0 .194.157.351.352.351s.352-.157.352-.351c0-.194-.158-.352-.352-.352m-.56-.911c-.194 0-.352.158-.352.352s.158.352.351.352c.194 0 .352-.157.352-.351 0-.194-.158-.353-.352-.353m-.657.815c-.194 0-.352.157-.352.352 0 .194.158.352.352.352.193 0 .352-.158.352-.352 0-.194-.159-.352-.352-.352m-1.251.007c-.195 0-.352.158-.352.353 0 .194.157.352.351.352.193 0 .352-.158.352-.352 0-.194-.159-.352-.352-.352m-.53.826c-.194 0-.352.158-.352.352 0 .194.158.351.352.351.194 0 .352-.158.352-.352 0-.194-.158-.352-.352-.352m.239 1.059c0 .194.157.352.351.352.194 0 .352-.158.352-.352 0-.195-.159-.352-.353-.352-.194 0-.352.157-.352.352m-1.142.069c0 .194.157.352.352.352.194 0 .352-.158.352-.352 0-.194-.158-.352-.352-.352-.194 0-.352.158-.352.352m-.432.2c-.195 0-.352.158-.352.353 0 .194.157.3518.352.3518.194 0 .352-.158.352-.351 0-.1943-.158-.3524-.352-.3524m-.824 1.25c.193 0 .352-.158.352-.352s-.159-.352-.352-.352c-.195 0-.352.158-.352.352 0 .194.157.352.352.352M2.91 4.674c0 .194.158.3516.352.3516.194 0 .352-.1577.352-.351 0-.195-.158-.352-.352-.352-.194 0-.352.157-.352.352m-.917.547c0 .194.158.352.351.352.194 0 .352-.158.352-.352 0-.194-.158-.353-.352-.353-.193 0-.351.159-.351.353m-.612.982c.194 0 .352-.157.352-.351 0-.195-.158-.352-.352-.352s-.352.158-.352.353c0 .193.158.351.352.351m-.974-.72c.194 0 .353-.1582.353-.352-.0016-.193-.16-.351-.354-.351s-.352.158-.352.3528c0 .193.157.351.351.351m1.064-.602c.194 0 .352-.158.352-.351 0-.195-.158-.353-.3526-.353-.194 0-.351.158-.351.352 0 .193.157.351.351.351M.594 3.423c-.1936 0-.3514.158-.3514.3524 0 .1942.1578.3518.3516.3518.194 0 .353-.1576.353-.3518 0-.1945-.158-.3522-.352-.3522m1.035.135c.195 0 .353-.1577.353-.352 0-.1945-.158-.352-.3522-.352-.1933 0-.3506.1575-.3506.352 0 .1943.157.352.3506.352m.8524.0352c-.1938 0-.3516.1583-.3516.3522 0 .194.1578.352.3514.352.195 0 .353-.1583.353-.3525 0-.194-.158-.352-.3528-.352m.5995-.169c0 .194.158.352.352.352.194 0 .352-.158.352-.352 0-.194-.158-.352-.353-.352-.194 0-.352.159-.352.353m.688.722c0 .194.158.352.351.352.194 0 .352-.158.352-.352 0-.194-.158-.353-.353-.353-.194 0-.352.158-.352.352M2.305 6.84c.194 0 .352-.158.352-.351 0-.1945-.158-.3525-.352-.3525-.194 0-.352.158-.352.353 0 .193.158.351.352.351m4.21-3.223c-.194 0-.352.1577-.352.352 0 .1943.158.352.352.352.194 0 .353-.1577.353-.352 0-.1943-.159-.352-.353-.352m2.54-1.488c-.194 0-.3523.1582-.3523.3523 0 .194.158.352.352.352.193 0 .351-.158.351-.352 0-.194-.158-.3525-.352-.3525m.394-.514c0 .194.157.352.352.352.193 0 .352-.158.352-.352 0-.194-.159-.3523-.352-.3523-.195 0-.352.1586-.352.3526m-.974.213c.194 0 .352-.1576.352-.3517 0-.194-.158-.353-.352-.353-.194 0-.352.158-.352.352 0 .194.158.351.352.351m.751-.882c.195 0 .352-.158.352-.351 0-.195-.157-.353-.352-.353-.194 0-.352.158-.352.353 0 .193.158.351.351.351m-1.36-.17c.194 0 .3515-.158.3515-.352 0-.195-.157-.353-.351-.353s-.352.157-.352.352c0 .194.158.351.352.351M6.51.704c.1947 0 .3525-.1578.3525-.3518S6.7047 0 6.51 0c-.193 0-.3513.1583-.3513.3524 0 .194.1582.3518.3513.3518M5.1302.7716c.1934 0 .3518-.1584.3518-.3517 0-.195-.1584-.353-.3518-.353-.1946 0-.3525.158-.3525.352 0 .193.158.351.3525.351M3.8046.95c.1946 0 .3523-.1576.3523-.3516S3.999.247 3.804.247c-.194 0-.352.1584-.352.3526 0 .194.1578.3517.352.3517m2.0252.7947c.1943 0 .3516-.158.3516-.3516 0-.194-.1574-.3527-.3517-.3527-.194 0-.351.1584-.351.3524 0 .194.158.352.352.352m-1.305.087c.195 0 .353-.157.353-.351 0-.194-.158-.352-.352-.352-.194 0-.351.159-.351.353s.158.352.352.352m-.577.303c-.194 0-.352.158-.352.352 0 .195.158.353.352.353.194 0 .352-.158.352-.352 0-.194-.158-.351-.352-.351m-1.272.923c.194 0 .352-.158.352-.352 0-.194-.158-.352-.352-.352-.194 0-.351.158-.351.352 0 .194.158.352.352.352m-.744-.823c.195 0 .352-.158.352-.352 0-.194-.158-.352-.352-.352-.194 0-.351.158-.351.353 0 .194.158.352.352.352m1.276-.262c.195 0 .353-.158.353-.352s-.158-.352-.352-.352c-.194 0-.351.158-.351.352 0 .194.158.352.352.352m1.11 1.295c0 .194.159.352.352.352.195 0 .352-.158.352-.352 0-.194-.157-.352-.352-.352-.193 0-.352.158-.352.353m.897-1.263c-.194 0-.351.159-.351.353s.157.352.352.352c.193 0 .352-.157.352-.352 0-.194-.159-.352-.352-.352m1.929-.261c.194 0 .352-.157.352-.351 0-.194-.158-.353-.353-.353-.194 0-.352.159-.352.353 0 .194.158.351.352.351m-.631.208c-.194 0-.351.158-.351.352s.158.352.352.352c.195 0 .353-.158.353-.352 0-.194-.158-.352-.352-.352m2.047 2.83c0-.194-.158-.352-.352-.352-.194 0-.351.158-.351.352 0 .194.157.352.352.352.194 0 .351-.158.351-.352m-.943.254c-.194 0-.351.158-.351.353 0 .194.157.351.351.351.194 0 .352-.157.352-.351 0-.195-.159-.353-.353-.353m-.903-.335c0 .194.158.352.352.352.194 0 .352-.158.352-.352 0-.194-.158-.352-.352-.352-.194 0-.352.158-.352.352m-.205.313c-.194 0-.351.158-.351.352 0 .194.158.352.352.352s.352-.158.352-.352c0-.194-.158-.351-.352-.351m-.904.943c0 .194.157.351.351.351.195 0 .352-.158.352-.352 0-.195-.157-.353-.352-.353-.194 0-.351.158-.351.352M5.4 5.05c-.194 0-.352.158-.352.353 0 .193.157.3515.351.3515.194 0 .352-.158.352-.351 0-.195-.159-.3523-.353-.3523m-.032 1.803c.194 0 .353-.158.353-.352 0-.195-.159-.353-.353-.353-.194 0-.352.159-.352.353 0 .194.158.352.352.352m-.658-.549c.194 0 .352-.158.352-.352 0-.194-.158-.353-.352-.353-.194 0-.352.1583-.352.3523s.158.352.352.352m.003 1.129c.194 0 .353-.158.353-.3515 0-.194-.159-.352-.353-.352-.1936 0-.351.158-.351.352 0 .194.158.351.3513.351m-.744-.588c.1935 0 .352-.158.352-.352 0-.1948-.1585-.352-.352-.352-.1946 0-.352.158-.352.352 0 .194.1574.352.352.352m.056 1.185c.1935 0 .352-.157.352-.351 0-.194-.158-.352-.351-.352-.195 0-.352.157-.352.352 0 .195.157.352.352.352m-.842-.538c.195 0 .352-.158.352-.352 0-.194-.157-.352-.351-.352-.194 0-.3517.1582-.3517.3523 0 .194.158.352.352.352M3.28 8.7c.1946 0 .3526-.158.3526-.351 0-.195-.158-.3534-.352-.3534-.194 0-.3514.158-.3514.3538 0 .193.158.351.352.351m-.792.718c.194 0 .352-.1576.352-.3516 0-.1945-.158-.353-.3524-.353-.194 0-.352.158-.352.352 0 .194.158.352.352.352m-.661-.934c0-.194-.158-.352-.352-.352-.194 0-.352.158-.352.3524 0 .194.158.352.352.352.194 0 .352-.1574.352-.3515M.768 7.868c0-.1948-.158-.3517-.3527-.3517-.194 0-.352.157-.352.3518 0 .194.158.352.352.352.1944 0 .3524-.157.3524-.351m.6184-.349c.194 0 .352-.158.352-.352 0-.194-.158-.352-.352-.352-.194 0-.352.159-.352.352 0 .195.158.353.352.353M.352 6.842c.194 0 .3528-.158.3528-.352 0-.194-.1583-.353-.3524-.353-.193 0-.351.158-.351.352 0 .1934.159.352.352.352m1.999 1.287c.194 0 .352-.158.352-.352 0-.195-.158-.352-.3516-.352-.1944 0-.3516.157-.3516.352 0 .1942.1576.3516.352.3516M.59 8.842c-.194 0-.3514.1585-.3514.352 0 .1944.1574.3518.3514.3518.1946 0 .3525-.1572.3525-.3516 0-.1935-.158-.352-.3524-.352m1.38.9658c0-.194-.157-.3526-.352-.3526-.194 0-.351.1586-.351.3525 0 .194.158.351.352.351.195 0 .352-.158.352-.352m4.338-2.752c0-.194-.157-.353-.352-.353-.194 0-.351.158-.351.352 0 .194.158.352.352.352s.352-.158.352-.352m.199.927c.194 0 .353-.158.353-.352 0-.194-.158-.352-.352-.352-.194 0-.352.158-.352.352 0 .194.158.352.352.352m-.232.314c0-.195-.158-.352-.352-.352-.194 0-.352.157-.352.352 0 .194.158.352.352.352.194 0 .352-.158.352-.352M5.34 9.349c.194 0 .352-.1576.352-.352s-.158-.352-.352-.352c-.1945 0-.352.1576-.352.352s.1575.352.352.352m.532.828c.194 0 .3517-.1588.3517-.352 0-.1947-.1577-.353-.352-.353-.1936 0-.3517.1583-.3517.353 0 .1932.158.352.352.352m-.6525.819c.194 0 .352-.1577.352-.3514 0-.1943-.158-.3528-.352-.3528-.1942 0-.3517.158-.3517.352 0 .1932.1577.351.352.351m-1.2815-.133c.1947 0 .3522-.158.3522-.3518 0-.195-.1577-.3524-.3524-.3524-.194 0-.351.1573-.351.3523 0 .194.157.351.351.351m-.501-.936c.194 0 .352-.158.352-.352 0-.194-.158-.352-.352-.352-.194 0-.351.158-.351.352 0 .194.158.352.352.352m1.231.153c.194 0 .352-.158.352-.352s-.158-.352-.352-.352c-.194 0-.352.157-.352.352 0 .194.158.351.352.351M4.476 8.85c0-.1942-.158-.3524-.352-.3524-.194 0-.352.158-.352.3525 0 .194.158.351.352.351.194 0 .352-.157.352-.351m.303-.287c.195 0 .353-.158.353-.352s-.158-.352-.352-.352c-.194 0-.352.159-.352.353 0 .194.1578.352.352.352m.614-.606c.1944 0 .352-.157.352-.351 0-.194-.1576-.352-.352-.352-.1935 0-.3516.159-.3516.353 0 .194.158.352.3515.352M3.025 10.3c0-.194-.1584-.353-.3523-.353-.194 0-.3515.1588-.3515.353 0 .1935.158.352.3517.352.194 0 .352-.1585.352-.352m.171.725c-.194 0-.352.158-.352.3527 0 .1935.158.352.351.352.194 0 .352-.1585.352-.352 0-.1943-.158-.353-.352-.353M1.922 10.77c-.1946 0-.3525.1575-.3525.3518 0 .1947.158.352.3524.352.193 0 .352-.1573.352-.352 0-.1944-.159-.3517-.352-.3517m2.598.401c-.195 0-.352.158-.352.352 0 .194.157.352.351.352.194 0 .352-.158.352-.351 0-.194-.158-.351-.352-.351m3.145-7.51c-.194 0-.352.159-.352.353s.158.352.352.352c.194 0 .352-.158.352-.352 0-.194-.158-.352-.353-.352m2.491.293c0 .194.157.352.352.352s.352-.158.352-.352-.158-.352-.352-.352-.352.159-.352.353m-.427.369c-.194 0-.353.159-.353.353 0 .194.158.352.352.352s.351-.158.351-.352c0-.194-.158-.352-.352-.352m.911 1.247c.194 0 .351-.158.351-.351 0-.194-.158-.352-.352-.352s-.352.158-.352.352c0 .194.157.352.352.352m.055.565c-.194 0-.352.158-.352.352 0 .193.158.351.351.351.195 0 .352-.158.352-.352 0-.194-.157-.352-.352-.352M9.46 5.881c0 .194.1578.352.3526.352.194 0 .3516-.158.3516-.352 0-.194-.1576-.352-.3515-.352-.1947 0-.3523.158-.3523.352M8.998 5.69c.1946 0 .353-.158.353-.351 0-.194-.158-.352-.3527-.352-.1936 0-.3516.158-.3516.353 0 .1937.158.3517.3515.3517"/></g></svg>