<svg width="2205" height="1765" xmlns="http://www.w3.org/2000/svg" xmlns:xlink="http://www.w3.org/1999/xlink" xml:space="preserve" overflow="hidden"><g transform="translate(-1095 -357)"><g><g><g><g><path d="M2200 358C2260.84 358 2310 407.156 2310 468L2310 688 2722.5 688C2859.31 688 2970 798.687 2970 935.5L2970 1870.5C2970 2007.31 2859.31 2118 2722.5 2118L1677.5 2118C1540.69 2118 1430 2007.31 1430 1870.5L1430 935.5C1430 798.687 1540.69 688 1677.5 688L2090 688 2090 468C2090 407.156 2139.16 358 2200 358ZM1815 1678C1784.75 1678 1760 1702.75 1760 1733 1760 1763.25 1784.75 1788 1815 1788L1925 1788C1955.25 1788 1980 1763.25 1980 1733 1980 1702.75 1955.25 1678 1925 1678L1815 1678ZM2145 1678C2114.75 1678 2090 1702.75 2090 1733 2090 1763.25 2114.75 1788 2145 1788L2255 1788C2285.25 1788 2310 1763.25 2310 1733 2310 1702.75 2285.25 1678 2255 1678L2145 1678ZM2475 1678C2444.75 1678 2420 1702.75 2420 1733 2420 1763.25 2444.75 1788 2475 1788L2585 1788C2615.25 1788 2640 1763.25 2640 1733 2640 1702.75 2615.25 1678 2585 1678L2475 1678ZM2007.5 1238C2007.5 1162.06 1945.94 1100.5 1870 1100.5 1794.06 1100.5 1732.5 1162.06 1732.5 1238 1732.5 1313.94 1794.06 1375.5 1870 1375.5 1945.94 1375.5 2007.5 1313.94 2007.5 1238ZM2530 1375.5C2605.94 1375.5 2667.5 1313.94 2667.5 1238 2667.5 1162.06 2605.94 1100.5 2530 1100.5 2454.06 1100.5 2392.5 1162.06 2392.5 1238 2392.5 1313.94 2454.06 1375.5 2530 1375.5ZM1265 1128 1320 1128 1320 1788 1265 1788C1173.91 1788 1100 1714.09 1100 1623L1100 1293C1100 1201.91 1173.91 1128 1265 1128ZM3135 1128C3226.09 1128 3300 1201.91 3300 1293L3300 1623C3300 1714.09 3226.09 1788 3135 1788L3080 1788 3080 1128 3135 1128Z" fill="#2698BA" fill-rule="nonzero" fill-opacity="1"/></g></g></g><path d="M1733 1690.67C1733 1679.81 1741.8 1671 1752.67 1671L2630.33 1671C2641.2 1671 2650 1679.81 2650 1690.67L2650 1769.33C2650 1780.19 2641.2 1789 2630.33 1789L1752.67 1789C1741.8 1789 1733 1780.19 1733 1769.33Z" fill="#FFFFFF" fill-rule="evenodd" fill-opacity="1"/></g></g></svg>