<svg width="512" height="512" xmlns="http://www.w3.org/2000/svg" xmlns:xlink="http://www.w3.org/1999/xlink" xml:space="preserve" overflow="hidden"><g transform="translate(-320 -104)"><g><path d="M640 104C657.7 104 672 118.3 672 136L672 200 792 200C831.8 200 864 232.2 864 272L864 544C864 583.8 831.8 616 792 616L488 616C448.2 616 416 583.8 416 544L416 272C416 232.2 448.2 200 488 200L608 200 608 136C608 118.3 622.3 104 640 104ZM528 488C519.2 488 512 495.2 512 504 512 512.8 519.2 520 528 520L560 520C568.8 520 576 512.8 576 504 576 495.2 568.8 488 560 488L528 488ZM624 488C615.2 488 608 495.2 608 504 608 512.8 615.2 520 624 520L656 520C664.8 520 672 512.8 672 504 672 495.2 664.8 488 656 488L624 488ZM720 488C711.2 488 704 495.2 704 504 704 512.8 711.2 520 720 520L752 520C760.8 520 768 512.8 768 504 768 495.2 760.8 488 752 488L720 488ZM584 360C584 337.909 566.091 320 544 320 521.909 320 504 337.909 504 360 504 382.091 521.909 400 544 400 566.091 400 584 382.091 584 360ZM736 400C758.091 400 776 382.091 776 360 776 337.909 758.091 320 736 320 713.909 320 696 337.909 696 360 696 382.091 713.909 400 736 400ZM368 328 384 328 384 520 368 520C341.5 520 320 498.5 320 472L320 376C320 349.5 341.5 328 368 328ZM912 328C938.5 328 960 349.5 960 376L960 472C960 498.5 938.5 520 912 520L896 520 896 328 912 328Z" fill="#2698BA" fill-rule="nonzero" fill-opacity="1"/></g></g></svg>